<?xml version="1.0" encoding="utf-8"?>
<!-- Generator: Adobe Illustrator 26.0.1, SVG Export Plug-In . SVG Version: 6.00 Build 0)  -->
<svg version="1.1" id="Слой_1" xmlns="http://www.w3.org/2000/svg" xmlns:xlink="http://www.w3.org/1999/xlink" x="0px" y="0px"
	 viewBox="0 0 1000 228.26" style="enable-background:new 0 0 1000 228.26;" xml:space="preserve">
<g>
	<path d="M225.76,182.3c-4.52,19.07-17.17,24.72-46.45,24.72H13.28c-7.92,0-8.32-5.82-1.98-10.14L168.04,79.9L6.14,80.39l0.32-0.53
		c1.21-2.79,8.12-18.99,9.57-22.34c14.14-32.84,24.32-34.94,44.8-35.06v-0.12h137.75c19.43,0,26.62,25.85,26.62,25.85L59.75,170.85
		c-22.18,16.85-28.9,25.99,19.75,25.99h89.67c26.01,0,40.07-0.16,45.97-14.54H225.76z"/>
	<path d="M365.14,148.6v58.44c0,0-4.01,0-18.79,0c-14.78,0-28.68-0.95-46.05-40.32C282.47,126.31,238.15,21.2,238.15,21.2h12.1
		c0,0,36.56,87.28,42.48,97.03C307.08,141.93,323.1,148.25,365.14,148.6z M480.04,21.21h12.09c0,0-44.32,105.11-62.15,145.53
		c-17.37,39.37-31.27,40.32-46.05,40.32c-14.78,0-18.79,0-18.79,0v-58.45c42.04-0.36,58.07-6.67,72.42-30.38
		C443.48,108.49,480.04,21.21,480.04,21.21L480.04,21.21z"/>
	<path d="M663.01,147.47l59.12,59.44H663.5c-30.47-31.77-41.26-69.74-136.47-69.74v69.74h-9.87V21.21h152.92
		c28.75,0,52.06,16.85,52.06,45.59v4.44C722.13,103.2,716.25,142.74,663.01,147.47z M712.17,99.2c0-19.59-20.98-19.59-39.16-19.61
		c-31.01-0.04-145.98,0-145.98,0v48.89c0,0,68.44-0.66,126.41-0.29C702.08,128.48,712.16,109.65,712.17,99.2z"/>
	<path d="M866.87,148.6v58.44c0,0-4.01,0-18.79,0c-14.78,0-28.68-0.95-46.05-40.32C784.2,126.31,739.88,21.2,739.88,21.2h12.1
		c0,0,36.56,87.28,42.48,97.03C808.8,141.93,824.83,148.25,866.87,148.6z M981.77,21.21h12.09c0,0-44.32,105.11-62.15,145.53
		c-17.37,39.37-31.27,40.32-46.05,40.32c-14.78,0-18.79,0-18.79,0v-58.45c42.04-0.36,58.07-6.67,72.42-30.38
		C945.21,108.49,981.77,21.21,981.77,21.21L981.77,21.21z"/>
</g>
</svg>
